<?xml version="1.0" standalone="no"?>
<!DOCTYPE svg PUBLIC "-//W3C//DTD SVG 20010904//EN"
 "http://www.w3.org/TR/2001/REC-SVG-20010904/DTD/svg10.dtd">
<svg version="1.0" xmlns="http://www.w3.org/2000/svg"
 width="260.000000pt" height="260.000000pt" viewBox="0 0 260.000000 260.000000"
 preserveAspectRatio="xMidYMid meet">
<metadata>
Created by potrace 1.11, written by Peter Selinger 2001-2013
</metadata>
<g transform="translate(0.000000,260.000000) scale(0.100000,-0.100000)"
fill="#000000" stroke="none">
<path d="M1178 2595 c-1 -1 -21 -5 -43 -8 -22 -3 -85 -19 -140 -35 -426 -125
-728 -216 -772 -233 -58 -23 -115 -75 -146 -134 -22 -39 -22 -48 -25 -630 -2
-398 1 -611 8 -655 6 -36 29 -101 50 -145 51 -108 128 -185 257 -260 54 -32
139 -81 188 -110 507 -296 636 -366 689 -377 92 -20 143 -3 339 111 95 54 187
107 204 118 97 55 389 223 460 265 108 64 189 146 236 240 67 133 66 117 64
793 -2 604 -2 610 -24 650 -25 47 -76 101 -112 120 -22 11 -258 84 -616 190
-44 13 -125 37 -180 54 -55 17 -127 34 -160 40 -56 8 -269 14 -277 6z m233
-149 c50 -6 168 -39 509 -143 118 -36 229 -68 245 -73 88 -22 176 -54 193 -68
45 -40 44 -36 44 -643 0 -636 0 -634 -63 -734 -49 -78 -99 -117 -305 -235
-104 -60 -271 -156 -370 -214 -98 -57 -181 -102 -183 -100 -4 4 -8 43 -17 214
-4 69 -8 132 -9 140 -2 13 -27 15 -155 15 l-153 0 -3 -25 c-1 -14 -5 -83 -9
-155 -4 -72 -9 -141 -10 -155 -2 -14 -4 -29 -4 -34 -1 -5 -7 -4 -13 1 -7 6
-38 24 -68 40 -126 69 -590 339 -652 380 -93 62 -156 149 -179 249 -7 33 -11
239 -11 621 -1 538 0 574 17 600 27 41 42 50 120 74 39 11 113 33 165 49 411
125 649 192 698 197 31 3 58 6 59 7 4 3 99 -2 154 -8z"/>
<path d="M1209 1662 c-1 -10 -3 -37 -4 -62 -2 -25 -6 -84 -10 -132 -3 -49 -3
-88 2 -89 11 -1 163 -1 190 0 22 1 23 2 16 109 -4 59 -7 125 -7 148 l-1 41
-92 0 c-80 1 -93 -1 -94 -15z"/>
<path d="M1179 1163 c-1 -16 -3 -37 -4 -48 -1 -11 -5 -78 -9 -149 -3 -71 -8
-131 -10 -135 -2 -3 0 -14 3 -25 6 -17 19 -18 139 -18 128 1 158 5 147 21 -2
5 -7 64 -11 132 -3 68 -7 140 -9 159 -1 19 -3 47 -4 63 l-1 27 -120 0 -120 0
-1 -27z"/>
</g>
</svg>
